<svg width="1773" height="1228" viewBox="0 0 1773 1228" fill="none" xmlns="http://www.w3.org/2000/svg">
<path opacity="0.897021" d="M808.718 256.152C546.624 1297.97 310.554 752.693 713.934 423.072C641.584 1198.53 378.741 1294.12 1087.81 292.327C1074.29 1104.18 1692.59 522.111 207.794 713.502C1061.07 1005.92 1025.14 134.673 1306.1 705.977C1114.38 929.337 1080.95 216.439 717.292 303.778C1592.52 713.691 1152.56 394.692 1028.02 897.786C921.647 976.829 50.5123 937.319 1534.72 753.96C119.729 1137.79 616.509 403.121 777.489 858.339C171.402 1074.17 1591.62 375.456 1064 376.142C1052.49 185.406 1055.27 810.623 222.336 1226.88C1397.42 211.667 977.294 584.157 648.545 796.805C866.235 922.679 1631.21 425.777 1.56356 887.439C302.058 1478.94 228.083 654.513 1036.48 161.058C681.621 1518.4 1325.02 888.742 840.492 642.374C825.161 718.565 985.167 266.559 256.473 805.951C1333.59 960.835 1674.42 591.676 1771.66 397.907C964.693 1039.17 1532.99 744.302 115.249 919.899C1033.22 75.1759 -103.099 977.287 61.8421 856.225C1406.73 34.2133 1494.68 576.538 86.4342 955.886C968.923 827.142 411.581 610.921 1578.8 697.836C227.294 1331.29 812.145 540.494 541.051 596.206C357.412 726.344 1425.82 876.837 1179.2 437.539C1126.35 237.999 1344.39 670.557 100.439 1016.14C936.064 729.625 813.653 192.405 988.905 295.909C999.431 1228 440.401 113.275 660.036 1174.45C552.892 863.609 1096.46 683.208 176.844 1109.16C963.211 793.348 1675.1 457.261 1226.19 873.731C863.015 992.274 223.665 845.987 1062.87 0.541702" stroke="#ffffff" stroke-opacity="0.06"/>
</svg>
